<svg width="290" height="180" viewBox="0 0 290 180" fill="none" xmlns="http://www.w3.org/2000/svg">
<rect x="0.536186" y="0.536064" width="288.928" height="178.298" stroke="#BDBDBD" stroke-width="1.07213" stroke-dasharray="1.07 1.07"/>
<path d="M0 22.555H290" stroke="#BDBDBD" stroke-width="1.07213" stroke-dasharray="2.14 2.14"/>
<path d="M0 45.1108H290" stroke="#BDBDBD" stroke-width="1.07213" stroke-dasharray="2.14 2.14"/>
<path d="M0 67.6665H290" stroke="#BDBDBD" stroke-width="1.07213" stroke-dasharray="2.14 2.14"/>
<path d="M0 90.222H290" stroke="#BDBDBD" stroke-width="1.07213" stroke-dasharray="2.14 2.14"/>
<path d="M0 112.778H290" stroke="#BDBDBD" stroke-width="1.07213" stroke-dasharray="2.14 2.14"/>
<path d="M0 135.334H290" stroke="#BDBDBD" stroke-width="1.07213" stroke-dasharray="2.14 2.14"/>
<path d="M0 156.814H290" stroke="#BDBDBD" stroke-width="1.07213" stroke-dasharray="2.14 2.14"/>
<path d="M46.185 0L46.185 179.598" stroke="#BDBDBD" stroke-width="1.07213" stroke-dasharray="2.14 2.14"/>
<path d="M21.4818 0L21.4818 179.598" stroke="#BDBDBD" stroke-width="1.07213" stroke-dasharray="2.14 2.14"/>
<path d="M70.8888 0L70.8888 179.598" stroke="#BDBDBD" stroke-width="1.07213" stroke-dasharray="2.14 2.14"/>
<path d="M95.5927 0L95.5927 179.598" stroke="#BDBDBD" stroke-width="1.07213" stroke-dasharray="2.14 2.14"/>
<path d="M120.297 0L120.297 179.598" stroke="#BDBDBD" stroke-width="1.07213" stroke-dasharray="2.14 2.14"/>
<path d="M145 0L145 179.598" stroke="#BDBDBD" stroke-width="1.07213" stroke-dasharray="2.14 2.14"/>
<path d="M169.704 0L169.704 179.598" stroke="#BDBDBD" stroke-width="1.07213" stroke-dasharray="2.14 2.14"/>
<path d="M194.407 0L194.407 179.598" stroke="#BDBDBD" stroke-width="1.07213" stroke-dasharray="2.14 2.14"/>
<path d="M219.111 0L219.111 179.598" stroke="#BDBDBD" stroke-width="1.07213" stroke-dasharray="2.14 2.14"/>
<path d="M243.814 0L243.814 179.598" stroke="#BDBDBD" stroke-width="1.07213" stroke-dasharray="2.14 2.14"/>
<path d="M268.518 0L268.518 179.598" stroke="#BDBDBD" stroke-width="1.07213" stroke-dasharray="2.14 2.14"/>
</svg>
