<svg width="26" height="26" viewBox="0 0 26 26" fill="none" xmlns="http://www.w3.org/2000/svg">
<path d="M25.2353 16.6706C25.2353 21.4056 21.4056 25.2353 16.6706 25.2353L17.9553 23.0941M0.764706 9.32941C0.764706 4.59435 4.59435 0.764706 9.32941 0.764706L8.04471 2.90588M11.7765 18.0776V21.3812C11.7765 24.1341 10.6753 25.2353 7.92235 25.2353H4.61882C1.86588 25.2353 0.764706 24.1341 0.764706 21.3812V18.0776C0.764706 15.3247 1.86588 14.2235 4.61882 14.2235H7.92235C10.6753 14.2235 11.7765 15.3247 11.7765 18.0776ZM19.7294 11.7765C20.4525 11.7765 21.1684 11.6341 21.8364 11.3574C22.5044 11.0807 23.1114 10.6751 23.6227 10.1638C24.1339 9.65257 24.5395 9.0456 24.8162 8.3776C25.0929 7.70959 25.2353 6.99363 25.2353 6.27059C25.2353 5.54755 25.0929 4.83158 24.8162 4.16358C24.5395 3.49557 24.1339 2.88861 23.6227 2.37734C23.1114 1.86607 22.5044 1.46051 21.8364 1.18382C21.1684 0.90712 20.4525 0.764706 19.7294 0.764706C18.2692 0.764706 16.8687 1.34479 15.8362 2.37734C14.8036 3.40989 14.2235 4.81034 14.2235 6.27059C14.2235 7.73084 14.8036 9.13128 15.8362 10.1638C16.8687 11.1964 18.2692 11.7765 19.7294 11.7765Z" stroke="black" stroke-width="1.5" stroke-linecap="round" stroke-linejoin="round"/>
</svg>
