<svg width="20" height="20" viewBox="0 0 20 20" fill="none" xmlns="http://www.w3.org/2000/svg">
<path d="M17.75 6.31666H13.1C12.775 6.31666 12.5167 6.05833 12.5167 5.73333C12.5167 5.40833 12.775 5.14999 13.1 5.14999H17.75C18.075 5.14999 18.3333 5.40833 18.3333 5.73333C18.3333 6.05833 18.075 6.31666 17.75 6.31666Z" fill="white"/>
<path d="M5.35002 6.31666H2.25002C1.92502 6.31666 1.66669 6.05833 1.66669 5.73333C1.66669 5.40833 1.92502 5.14999 2.25002 5.14999H5.35002C5.67502 5.14999 5.93335 5.40833 5.93335 5.73333C5.93335 6.05833 5.66669 6.31666 5.35002 6.31666Z" fill="white"/>
<path d="M8.44999 9.025C10.2679 9.025 11.7417 7.55127 11.7417 5.73333C11.7417 3.9154 10.2679 2.44167 8.44999 2.44167C6.63205 2.44167 5.15833 3.9154 5.15833 5.73333C5.15833 7.55127 6.63205 9.025 8.44999 9.025Z" fill="white"/>
<path d="M17.75 14.8417H14.65C14.325 14.8417 14.0667 14.5833 14.0667 14.2583C14.0667 13.9333 14.325 13.675 14.65 13.675H17.75C18.075 13.675 18.3333 13.9333 18.3333 14.2583C18.3333 14.5833 18.075 14.8417 17.75 14.8417Z" fill="white"/>
<path d="M6.90002 14.8417H2.25002C1.92502 14.8417 1.66669 14.5833 1.66669 14.2583C1.66669 13.9333 1.92502 13.675 2.25002 13.675H6.90002C7.22502 13.675 7.48335 13.9333 7.48335 14.2583C7.48335 14.5833 7.21669 14.8417 6.90002 14.8417Z" fill="white"/>
<path d="M11.55 17.5583C13.368 17.5583 14.8417 16.0846 14.8417 14.2667C14.8417 12.4487 13.368 10.975 11.55 10.975C9.73209 10.975 8.25836 12.4487 8.25836 14.2667C8.25836 16.0846 9.73209 17.5583 11.55 17.5583Z" fill="white"/>
</svg>
