<svg width="24" height="24" viewBox="0 0 24 24" fill="none" xmlns="http://www.w3.org/2000/svg">
<path d="M16.97 14.44C18.34 14.67 19.85 14.43 20.91 13.72C22.32 12.78 22.32 11.24 20.91 10.3C19.84 9.59 18.31 9.35 16.94 9.59M7 14.44C5.63 14.67 4.12 14.43 3.06 13.72C1.65 12.78 1.65 11.24 3.06 10.3C4.13 9.59 5.66 9.35 7.03 9.59M18 7.16C17.9371 7.14999 17.8729 7.14999 17.81 7.16C17.1426 7.13587 16.5108 6.85321 16.048 6.37176C15.5852 5.89032 15.3277 5.2478 15.33 4.58C15.33 3.15 16.48 2 17.91 2C18.5943 2 19.2505 2.27182 19.7343 2.75566C20.2182 3.23951 20.49 3.89574 20.49 4.58C20.4882 5.24827 20.228 5.88996 19.7639 6.37081C19.2998 6.85167 18.6678 7.13445 18 7.16ZM5.97 7.16C6.03 7.15 6.1 7.15 6.16 7.16C6.82737 7.13587 7.45921 6.85321 7.922 6.37176C8.38478 5.89032 8.64226 5.2478 8.64 4.58C8.64 3.15 7.49 2 6.06 2C5.37574 2 4.71951 2.27182 4.23567 2.75566C3.75182 3.23951 3.48 3.89574 3.48 4.58C3.49 5.98 4.59 7.11 5.97 7.16ZM12 14.63C11.9371 14.62 11.8729 14.62 11.81 14.63C11.1426 14.6059 10.5108 14.3232 10.048 13.8418C9.58522 13.3603 9.32775 12.7178 9.33 12.05C9.33 10.62 10.48 9.47 11.91 9.47C12.5943 9.47 13.2505 9.74182 13.7343 10.2257C14.2182 10.7095 14.49 11.3657 14.49 12.05C14.48 13.45 13.38 14.59 12 14.63ZM9.09 17.78C7.68 18.72 7.68 20.26 9.09 21.2C10.69 22.27 13.31 22.27 14.91 21.2C16.32 20.26 16.32 18.72 14.91 17.78C13.32 16.72 10.69 16.72 9.09 17.78Z" stroke="black" stroke-linecap="round" stroke-linejoin="round"/>
</svg>
