<svg width="30" height="30" viewBox="0 0 30 30" fill="none" xmlns="http://www.w3.org/2000/svg">
<path d="M4.99996 6.24996L12.4999 6.24996M12.4999 6.24996C12.4999 7.63067 13.6192 8.74996 14.9999 8.74996C16.3806 8.74996 17.4999 7.63067 17.4999 6.24996M12.4999 6.24996C12.4999 4.86925 13.6192 3.74997 14.9999 3.74997C16.3806 3.74997 17.4999 4.86925 17.4999 6.24996M17.4999 6.24996L24.9999 6.24996M4.99996 14.9999L19.9999 14.9999M19.9999 14.9999C19.9999 16.3807 21.1192 17.4999 22.4999 17.4999C23.8806 17.4999 24.9999 16.3806 24.9999 14.9999C24.9999 13.6192 23.8806 12.4999 22.4999 12.4999C21.1192 12.4999 19.9999 13.6192 19.9999 14.9999ZM9.99995 23.7499L24.9999 23.7499M9.99995 23.7499C9.99995 22.3692 8.88066 21.2499 7.49995 21.2499C6.11924 21.2499 4.99996 22.3692 4.99996 23.7499C4.99996 25.1306 6.11924 26.2499 7.49995 26.2499C8.88066 26.2499 9.99995 25.1306 9.99995 23.7499Z" stroke="white" stroke-width="1.3663" stroke-linecap="round"/>
</svg>
