<svg width="23" height="21" viewBox="0 0 23 21" fill="none" xmlns="http://www.w3.org/2000/svg">
<rect width="22.9999" height="20.9179" rx="5.25952" fill="#FCB900"/>
<path d="M8.05995 6.56491H15.3862C16.1303 6.56491 16.6558 7.29655 16.4205 8.00504L15.5119 10.7404C15.3635 11.1872 14.9469 11.4885 14.4776 11.4885H8.76083M8.05995 6.56491L8.03793 6.41017C7.9612 5.87115 7.5012 5.47077 6.95863 5.47077H6.54139M8.05995 6.56491L8.76083 11.4885M8.76083 11.4885L8.86074 12.1903C8.93747 12.7294 9.39747 13.1297 9.94004 13.1297H14.7183M14.7183 13.1297C14.1162 13.1297 13.6281 13.6196 13.6281 14.2239C13.6281 14.8282 14.1162 15.318 14.7183 15.318C15.3204 15.318 15.8086 14.8282 15.8086 14.2239C15.8086 13.6196 15.3204 13.1297 14.7183 13.1297ZM11.4475 14.2239C11.4475 14.8282 10.9594 15.318 10.3573 15.318C9.75515 15.318 9.26703 14.8282 9.26703 14.2239C9.26703 13.6196 9.75515 13.1297 10.3573 13.1297C10.9594 13.1297 11.4475 13.6196 11.4475 14.2239Z" stroke="white" stroke-width="0.903449" stroke-linecap="round" stroke-linejoin="round"/>
</svg>
