<svg width="22" height="314" viewBox="0 0 22 314" fill="none" xmlns="http://www.w3.org/2000/svg">
<path d="M10.5818 9.63604C10.4817 9.62602 10.3615 9.62602 10.2513 9.63604C9.10167 9.597 8.01238 9.11204 7.21409 8.28385C6.41581 7.45565 5.97123 6.34927 5.9745 5.19898C5.9745 2.74508 7.95765 0.751917 10.4216 0.751917C11.0049 0.741394 11.5846 0.845872 12.1276 1.05938C12.6705 1.2729 13.1661 1.59126 13.586 1.99631C14.006 2.40135 14.342 2.88514 14.575 3.42005C14.8079 3.95495 14.9332 4.53051 14.9437 5.11385C14.9543 5.69719 14.8498 6.27689 14.6363 6.81985C14.4228 7.36281 14.1044 7.8584 13.6994 8.27833C13.2943 8.69825 12.8105 9.03428 12.2756 9.26724C11.7407 9.5002 11.1652 9.62551 10.5818 9.63604ZM5.57386 13.3319C3.15001 14.9545 3.15001 17.5987 5.57386 19.2113C8.32824 21.0542 12.8454 21.0542 15.5998 19.2113C18.0236 17.5887 18.0236 14.9445 15.5998 13.3319C12.8554 11.499 8.33825 11.499 5.57386 13.3319Z" stroke="black" stroke-opacity="0.8" stroke-width="1.5" stroke-linecap="round" stroke-linejoin="round"/>
<path d="M10.8132 99.8799C7.49788 99.8799 4.8036 102.574 4.8036 105.889V108.784C4.8036 109.395 4.54319 110.327 4.23269 110.847L3.08086 112.76C2.36973 113.942 2.86051 115.254 4.16258 115.695C8.47944 117.137 13.1368 117.137 17.4537 115.695C18.6656 115.294 19.1965 113.862 18.5354 112.76L17.3836 110.847C17.0831 110.327 16.8227 109.395 16.8227 108.784V105.889C16.8227 102.584 14.1184 99.8799 10.8132 99.8799Z" stroke="black" stroke-opacity="0.8" stroke-width="1.5" stroke-miterlimit="10" stroke-linecap="round"/>
<path d="M12.6659 100.17C11.4547 99.8252 10.1713 99.8252 8.96004 100.17C9.2505 99.429 9.97165 98.9082 10.813 98.9082C11.6543 98.9082 12.3755 99.429 12.6659 100.17Z" stroke="black" stroke-opacity="0.8" stroke-width="1.5" stroke-miterlimit="10" stroke-linecap="round" stroke-linejoin="round"/>
<path d="M13.8179 116.056C13.8179 117.708 12.4657 119.06 10.8131 119.06C9.99178 119.06 9.23057 118.72 8.68971 118.179C8.12697 117.615 7.8101 116.852 7.80831 116.056" stroke="black" stroke-opacity="0.8" stroke-width="1.5" stroke-miterlimit="10"/>
<path d="M19.053 52.8349H3.48281C2.52734 52.8349 1.75279 53.6095 1.75279 54.565V64.9451C1.75279 65.9006 2.52734 66.6751 3.48281 66.6751H19.053C20.0085 66.6751 20.783 65.9006 20.783 64.9451V54.565C20.783 53.6095 20.0085 52.8349 19.053 52.8349Z" stroke="black" stroke-opacity="0.8" stroke-width="1.29545" stroke-linecap="round" stroke-linejoin="round"/>
<path d="M1.75279 58.025H20.783" stroke="black" stroke-opacity="0.8" stroke-width="1.29545" stroke-linecap="round" stroke-linejoin="round"/>
<path d="M10.7671 168.018C10.7671 168.018 18.7798 164.012 18.7798 158.002V150.991L10.7671 147.986L2.75438 150.991V158.002C2.75438 164.012 10.7671 168.018 10.7671 168.018Z" stroke="black" stroke-opacity="0.8" stroke-width="1.5" stroke-linecap="round" stroke-linejoin="round"/>
<path d="M10.7671 216.094C16.2988 216.094 20.783 211.61 20.783 206.078C20.783 200.547 16.2988 196.063 10.7671 196.063C5.23547 196.063 0.751194 200.547 0.751194 206.078C0.751194 211.61 5.23547 216.094 10.7671 216.094Z" stroke="black" stroke-opacity="0.8" stroke-width="1.5" stroke-linecap="round" stroke-linejoin="round"/>
<path d="M7.85232 203.074C8.0878 202.404 8.55259 201.84 9.16436 201.48C9.77614 201.121 10.4954 200.989 11.1948 201.109C11.8942 201.229 12.5286 201.593 12.9856 202.136C13.4425 202.679 13.6927 203.366 13.6916 204.075C13.6916 206.079 10.6868 207.08 10.6868 207.08" stroke="black" stroke-opacity="0.8" stroke-width="1.5" stroke-linecap="round" stroke-linejoin="round"/>
<path d="M10.7671 211.086H10.7771" stroke="black" stroke-opacity="0.8" stroke-width="1.5" stroke-linecap="round" stroke-linejoin="round"/>
<path d="M19.7432 255.948C19.5856 257.653 18.9458 259.277 17.8985 260.632C16.8512 261.987 15.4398 263.015 13.8295 263.596C12.2192 264.178 10.4764 264.289 8.80531 263.916C7.13417 263.544 5.60372 262.703 4.39302 261.492C3.18233 260.282 2.34148 258.751 1.96885 257.08C1.59623 255.409 1.70724 253.666 2.28891 252.056C2.87058 250.446 3.89884 249.034 5.25338 247.987C6.60791 246.94 8.2327 246.3 9.93761 246.142C8.93944 247.493 8.45911 249.156 8.58399 250.831C8.70887 252.506 9.43066 254.08 10.6181 255.267C11.8055 256.455 13.3797 257.176 15.0543 257.301C16.729 257.426 18.3928 256.946 19.7432 255.948Z" stroke="black" stroke-opacity="0.8" stroke-width="1.5" stroke-linecap="round" stroke-linejoin="round"/>
<path d="M7.76234 313.249H3.75597C3.22469 313.249 2.71517 313.038 2.3395 312.662C1.96383 312.286 1.75279 311.777 1.75279 311.246V297.223C1.75279 296.692 1.96383 296.183 2.3395 295.807C2.71517 295.431 3.22469 295.22 3.75597 295.22H7.76234" stroke="#FF0202" stroke-opacity="0.5" stroke-width="1.5" stroke-linecap="round" stroke-linejoin="round"/>
<path d="M14.7735 309.242L19.7814 304.234L14.7735 299.227" stroke="#FF0202" stroke-opacity="0.5" stroke-width="1.5" stroke-linecap="round" stroke-linejoin="round"/>
<path d="M19.7814 304.234H7.76234" stroke="#FF0202" stroke-opacity="0.5" stroke-width="1.5" stroke-linecap="round" stroke-linejoin="round"/>
</svg>
