<?xml version="1.0" standalone="no"?>
<!DOCTYPE svg PUBLIC "-//W3C//DTD SVG 20010904//EN"
 "http://www.w3.org/TR/2001/REC-SVG-20010904/DTD/svg10.dtd">
<svg version="1.0" xmlns="http://www.w3.org/2000/svg"
 width="72.000000pt" height="72.000000pt" viewBox="0 0 72.000000 72.000000"
 preserveAspectRatio="xMidYMid meet">

<g transform="translate(0.000000,72.000000) scale(0.100000,-0.100000)"
fill="#000000" stroke="none">
<path d="M55 695 l-25 -24 0 -336 c0 -184 3 -335 7 -335 4 0 17 10 30 22 l23
21 25 -23 25 -23 25 23 25 23 23 -22 c23 -21 57 -21 57 0 0 21 32 20 56 -1
l24 -23 25 23 25 23 25 -23 25 -23 25 23 25 23 23 -21 c13 -12 26 -22 30 -22
4 0 7 56 7 125 l0 125 65 0 65 0 0 81 c0 60 -3 80 -12 77 -8 -3 -14 -28 -16
-66 l-3 -62 -49 0 -50 0 0 188 c0 170 2 191 18 205 22 20 55 22 70 4 6 -7 12
-46 14 -87 2 -41 7 -75 13 -75 6 0 11 34 13 78 3 71 1 79 -22 102 l-25 25
-281 0 -281 0 -24 -25z m485 -31 c-6 -14 -10 -151 -10 -316 0 -260 -2 -289
-15 -278 -13 11 -20 9 -40 -10 l-25 -23 -25 23 -25 23 -24 -23 c-24 -21 -56
-22 -56 -1 0 19 -31 20 -47 1 -22 -25 -31 -25 -60 2 l-23 21 -25 -23 -25 -23
-25 23 c-20 19 -27 21 -40 10 -13 -11 -15 20 -15 292 0 223 3 307 12 316 9 9
77 12 245 12 l233 0 -10 -26z"/>
<path d="M110 565 l0 -75 38 0 c21 0 43 5 50 12 14 14 16 54 3 62 -5 3 -7 14
-4 25 6 25 -23 51 -58 51 l-29 0 0 -75z m58 33 c-6 -18 -28 -21 -28 -4 0 9 7
16 16 16 9 0 14 -5 12 -12z m12 -62 c0 -8 -7 -17 -16 -20 -23 -9 -24 -8 -24
14 0 13 7 20 20 20 11 0 20 -6 20 -14z"/>
<path d="M244 626 c-10 -25 1 -129 14 -134 9 -3 12 16 12 72 0 46 -4 76 -10
76 -6 0 -13 -6 -16 -14z"/>
<path d="M310 565 l0 -75 35 0 c40 0 47 17 10 26 -23 6 -25 11 -25 65 0 33 -4
59 -10 59 -6 0 -10 -32 -10 -75z"/>
<path d="M416 633 c-3 -3 -6 -37 -6 -75 l0 -68 35 0 c38 0 48 19 15 27 -17 5
-20 14 -20 59 0 50 -9 72 -24 57z"/>
<path d="M107 434 c-11 -12 3 -24 29 -24 16 0 24 5 22 13 -5 13 -40 22 -51 11z"/>
<path d="M207 434 c-19 -20 5 -24 134 -24 108 0 140 3 137 13 -5 13 -258 24
-271 11z"/>
<path d="M388 342 c-35 -34 -36 -66 -3 -88 19 -12 25 -25 25 -51 0 -33 -2 -35
-25 -29 -17 4 -25 2 -25 -7 0 -8 11 -19 25 -25 14 -6 25 -16 25 -22 0 -5 5
-10 10 -10 6 0 10 5 10 11 0 6 11 20 25 31 16 13 25 29 25 48 0 19 -9 35 -25
48 -27 22 -36 76 -11 66 25 -10 26 13 1 34 -14 12 -26 22 -28 21 -1 0 -14 -12
-29 -27z m22 -47 c0 -8 -4 -15 -10 -15 -5 0 -10 7 -10 15 0 8 5 15 10 15 6 0
10 -7 10 -15z m40 -95 c0 -10 -4 -22 -10 -25 -6 -4 -10 7 -10 25 0 18 4 29 10
25 6 -3 10 -15 10 -25z"/>
<path d="M107 354 c-11 -12 3 -24 29 -24 16 0 24 5 22 13 -5 13 -40 22 -51 11z"/>
<path d="M207 354 c-17 -18 -3 -25 43 -22 28 2 51 8 53 13 2 11 -85 20 -96 9z"/>
<path d="M105 270 c-8 -13 20 -24 41 -16 20 8 9 26 -16 26 -10 0 -22 -5 -25
-10z"/>
<path d="M200 265 c0 -13 10 -15 50 -13 67 4 69 22 3 26 -43 2 -53 0 -53 -13z"/>
<path d="M105 190 c-8 -13 20 -24 40 -16 8 3 15 10 15 16 0 13 -47 13 -55 0z"/>
<path d="M203 188 c2 -8 22 -13 52 -13 30 0 50 5 53 13 3 9 -12 12 -53 12 -41
0 -56 -3 -52 -12z"/>
<path d="M666 472 c-3 -6 -1 -14 5 -17 15 -10 25 3 12 16 -7 7 -13 7 -17 1z"/>
</g>
</svg>
