<svg width="21" height="26" viewBox="0 0 21 26" fill="none" xmlns="http://www.w3.org/2000/svg">
<path d="M12.9348 5.02174H8.06521M20.2391 6.84782V19.0217C20.2391 23.8913 19.0217 25.1087 14.1522 25.1087H6.84782C1.97826 25.1087 0.760869 23.8913 0.760869 19.0217V6.84782C0.760869 1.97826 1.97826 0.760869 6.84782 0.760869H14.1522C19.0217 0.760869 20.2391 1.97826 20.2391 6.84782Z" stroke="black" stroke-width="1.5" stroke-linecap="round" stroke-linejoin="round"/>
<path d="M10.4999 21.5782C11.0004 21.5782 11.4803 21.3794 11.8342 21.0256C12.1881 20.6717 12.3869 20.1917 12.3869 19.6913C12.3869 19.1908 12.1881 18.7109 11.8342 18.357C11.4803 18.0031 11.0004 17.8043 10.4999 17.8043C9.99947 17.8043 9.51952 18.0031 9.16564 18.357C8.81177 18.7109 8.61297 19.1908 8.61297 19.6913C8.61297 20.1917 8.81177 20.6717 9.16564 21.0256C9.51952 21.3794 9.99947 21.5782 10.4999 21.5782Z" stroke="black" stroke-width="1.5" stroke-linecap="round" stroke-linejoin="round"/>
</svg>
