<svg width="26" height="26" viewBox="0 0 26 26" fill="none" xmlns="http://www.w3.org/2000/svg">
<path d="M19.0756 15.9835C20.7516 16.2649 22.5989 15.9713 23.8957 15.1027C25.6207 13.9527 25.6207 12.0687 23.8957 10.9187C22.5867 10.0501 20.7149 9.75652 19.0389 10.0501M6.87853 15.9835C5.2025 16.2649 3.35521 15.9713 2.05843 15.1027C0.333466 13.9527 0.333466 12.0687 2.05843 10.9187C3.36744 10.0501 5.23921 9.75652 6.91523 10.0501M20.3357 7.07733C20.2587 7.06509 20.1802 7.06509 20.1032 7.07733C19.2868 7.0478 18.5138 6.70201 17.9476 6.11302C17.3815 5.52403 17.0665 4.73799 17.0693 3.92102C17.0693 2.17159 18.4761 0.764706 20.2256 0.764706C21.0627 0.764706 21.8655 1.09724 22.4574 1.68917C23.0493 2.28109 23.3819 3.08391 23.3819 3.92102C23.3796 4.73857 23.0613 5.52359 22.4936 6.11185C21.9259 6.70012 21.1526 7.04607 20.3357 7.07733ZM5.61845 7.07733C5.69185 7.06509 5.77749 7.06509 5.85089 7.07733C6.66733 7.0478 7.44031 6.70201 8.00648 6.11302C8.57264 5.52403 8.88762 4.73799 8.88487 3.92102C8.88487 2.17159 7.47798 0.764706 5.72856 0.764706C4.89145 0.764706 4.08863 1.09724 3.49671 1.68917C2.90478 2.28109 2.57224 3.08391 2.57224 3.92102C2.58448 5.63374 3.93019 7.01616 5.61845 7.07733ZM12.9954 16.216C12.9184 16.2037 12.84 16.2037 12.763 16.216C11.9465 16.1864 11.1736 15.8406 10.6074 15.2516C10.0412 14.6626 9.72624 13.8766 9.729 13.0596C9.729 11.3102 11.1359 9.90333 12.8853 9.90333C13.7224 9.90333 14.5252 10.2359 15.1172 10.8278C15.7091 11.4197 16.0416 12.2225 16.0416 13.0596C16.0294 14.7724 14.6837 16.167 12.9954 16.216ZM9.43539 20.0696C7.71043 21.2196 7.71043 23.1036 9.43539 24.2535C11.3928 25.5625 14.598 25.5625 16.5554 24.2535C18.2804 23.1036 18.2804 21.2196 16.5554 20.0696C14.6103 18.7728 11.3928 18.7728 9.43539 20.0696Z" stroke="black" stroke-width="1.5" stroke-linecap="round" stroke-linejoin="round"/>
</svg>
