<svg width="28" height="28" viewBox="0 0 28 28" fill="none" xmlns="http://www.w3.org/2000/svg">
<path d="M5.5833 5.83333H21.2626C22.8553 5.83333 23.9799 7.39363 23.4762 8.90453L21.5318 14.7379C21.2142 15.6907 20.3225 16.3333 19.3182 16.3333H7.0833M5.5833 5.83333L5.53617 5.50335C5.37196 4.35384 4.38747 3.5 3.22629 3.5H2.33331M5.5833 5.83333L7.0833 16.3333M7.0833 16.3333L7.29712 17.83C7.46134 18.9795 8.44582 19.8333 9.607 19.8333H19.8333M19.8333 19.8333C18.5446 19.8333 17.5 20.878 17.5 22.1667C17.5 23.4553 18.5446 24.5 19.8333 24.5C21.122 24.5 22.1666 23.4553 22.1666 22.1667C22.1666 20.878 21.122 19.8333 19.8333 19.8333ZM12.8333 22.1667C12.8333 23.4553 11.7886 24.5 10.5 24.5C9.21131 24.5 8.16665 23.4553 8.16665 22.1667C8.16665 20.878 9.21131 19.8333 10.5 19.8333C11.7886 19.8333 12.8333 20.878 12.8333 22.1667Z" stroke="black" stroke-width="1.91006" stroke-linecap="round" stroke-linejoin="round"/>
</svg>
