<svg width="16" height="16" viewBox="0 0 16 16" fill="none" xmlns="http://www.w3.org/2000/svg">
<g clip-path="url(#clip0_122_1210)">
<path d="M7.99992 1.3335C6.68138 1.3335 5.39245 1.72449 4.29612 2.45703C3.19979 3.18957 2.34531 4.23077 1.84072 5.44894C1.33614 6.66711 1.20412 8.00756 1.46135 9.30077C1.71859 10.594 2.35353 11.7819 3.28588 12.7142C4.21823 13.6466 5.40611 14.2815 6.69932 14.5387C7.99253 14.796 9.33297 14.6639 10.5511 14.1594C11.7693 13.6548 12.8105 12.8003 13.5431 11.704C14.2756 10.6076 14.6666 9.31871 14.6666 8.00016C14.6666 7.12468 14.4941 6.25778 14.1591 5.44894C13.8241 4.6401 13.333 3.90517 12.714 3.28612C12.0949 2.66706 11.36 2.176 10.5511 1.84097C9.74231 1.50593 8.8754 1.3335 7.99992 1.3335ZM10.6666 8.66683H7.99992C7.82311 8.66683 7.65354 8.59659 7.52852 8.47157C7.40349 8.34654 7.33325 8.17697 7.33325 8.00016V5.3335C7.33325 5.15669 7.40349 4.98712 7.52852 4.86209C7.65354 4.73707 7.82311 4.66683 7.99992 4.66683C8.17673 4.66683 8.3463 4.73707 8.47133 4.86209C8.59635 4.98712 8.66659 5.15669 8.66659 5.3335V7.3335H10.6666C10.8434 7.3335 11.013 7.40373 11.138 7.52876C11.263 7.65378 11.3333 7.82335 11.3333 8.00016C11.3333 8.17697 11.263 8.34654 11.138 8.47157C11.013 8.59659 10.8434 8.66683 10.6666 8.66683Z" fill="#92929D"/>
</g>
<defs>
<clipPath id="clip0_122_1210">
<rect width="16" height="16" fill="white"/>
</clipPath>
</defs>
</svg>
