<svg width="28" height="26" viewBox="0 0 28 26" fill="none" xmlns="http://www.w3.org/2000/svg">
<path d="M25.9655 6.42443L21.9063 22.7216C21.7654 23.3109 21.4292 23.8353 20.9525 24.2093C20.4757 24.5832 19.8864 24.7849 19.2804 24.7813H3.45302C1.63419 24.7813 0.333311 22.9986 0.875345 21.2521L5.94638 4.96696C6.11582 4.41469 6.45731 3.931 6.92101 3.58648C7.38471 3.24195 7.94637 3.05461 8.52405 3.05177H23.3397C24.484 3.05177 25.4355 3.7504 25.833 4.71401C26.0619 5.23196 26.1101 5.82217 25.9655 6.42443Z" stroke="black" stroke-width="1.5" stroke-miterlimit="10"/>
<path d="M18.8227 24.7813H24.5803C26.1342 24.7813 27.3507 23.4684 27.2423 21.9145L26.0499 5.50896M11.2102 5.96667L12.4629 0.763144M19.2804 5.97872L20.4127 0.751099M8.82521 12.7361H18.4614M7.62069 17.5542H17.2569" stroke="black" stroke-width="1.5" stroke-miterlimit="10" stroke-linecap="round" stroke-linejoin="round"/>
</svg>
